<svg width="24" height="36" viewBox="0 0 24 36" fill="none" xmlns="http://www.w3.org/2000/svg">
<path d="M16.6911 15.2915L23 1M8.304 15.608L1 1M14.1357 14.6197L7.49 1M16.84 1L15.08 5.23077M2.69231 24.6923C2.69231 27.3853 3.76209 29.9679 5.6663 31.8722C7.57052 33.7764 10.1532 34.8462 12.8462 34.8462C15.5391 34.8462 18.1218 33.7764 20.026 31.8722C21.9302 29.9679 23 27.3853 23 24.6923C23 21.9993 21.9302 19.4167 20.026 17.5125C18.1218 15.6082 15.5391 14.5385 12.8462 14.5385C10.1532 14.5385 7.57052 15.6082 5.6663 17.5125C3.76209 19.4167 2.69231 21.9993 2.69231 24.6923Z" stroke="#0147FF" stroke-width="1.5" stroke-linecap="round" stroke-linejoin="round"/>
<path d="M10.3076 23L13.6922 20.4615V28.9231" stroke="#0147FF" stroke-width="1.5" stroke-linecap="round" stroke-linejoin="round"/>
</svg>
